PathFileType	4	(X/Y/Z)	S:\OneDrive - The University of Tokyo\ìåëÂéˆã∆\ÉoÉCÉÅÉJ\ë™íË\hirabayashi_2\Trimmed\Trimmed_BarL20kg1.trc
DataRate	CameraRate	NumFrames	NumMarkers	Units	OrigDataRate	OrigDataStartFrame	OrigNumFrames
200.00	200.00	       12	12	mm	200.00	39	       306
Frame#	Time	BarR0			BarR50			BarR100			BarR130			BarR180			BarR230			BarL0			BarL50			BarL100			BarL130			BarL180			BarL230			
		X1	Y1	Z1	X2	Y2	Z2	X3	Y3	Z3	X4	Y4	Z4	X5	Y5	Z5	X6	Y6	Z6	X7	Y7	Z7	X8	Y8	Z8	X9	Y9	Z9	X10	Y10	Z10	X11	Y11	Z11	X12	Y12	Z12	

39	0.190	-575.96558	2755.42529	1664.45996	-604.80737	2306.24463	1662.41992	-637.29352	1851.89697	1662.06238	-660.68353	1349.40601	1662.47559	-690.05585	902.72076	1662.66235	-713.73712	454.69940	1664.10815	-1113.55115	2807.71753	1664.60767	-1140.79602	2356.11743	1663.18213	-1171.41028	1905.91113	1660.97437	-1198.81616	1404.16821	1661.35254	-1227.46729	952.69702	1663.55444	-1244.69397	506.77298	1667.53601	
40	0.195	-575.96606	2755.41626	1664.46606	-604.83862	2306.24487	1662.41162	-637.30188	1851.87366	1662.06750	-660.70490	1349.39539	1662.46960	-690.05011	902.70441	1662.65198	-713.75079	454.69434	1664.10730	-1113.56348	2807.70044	1664.59290	-1140.80237	2356.10156	1663.19897	-1171.41882	1905.90955	1660.97510	-1198.81470	1404.15820	1661.35889	-1227.46216	952.68958	1663.54553	-1244.68958	506.76599	1667.52380	
41	0.200	-575.96844	2755.41504	1664.46375	-604.82043	2306.25269	1662.41504	-637.28815	1851.88037	1662.06506	-660.69244	1349.38904	1662.46362	-690.06573	902.67578	1662.67017	-713.73706	454.69510	1664.11035	-1113.53674	2807.70093	1664.60510	-1140.79004	2356.10815	1663.19727	-1171.41431	1905.88879	1660.99426	-1198.81714	1404.17151	1661.37061	-1227.46143	952.68652	1663.54517	-1244.68982	506.76703	1667.52539	
42	0.205	-575.97394	2755.43579	1664.48474	-604.83258	2306.25732	1662.41541	-637.30243	1851.88611	1662.08057	-660.70569	1349.39734	1662.43921	-690.04608	902.70068	1662.66296	-713.73651	454.68866	1664.09827	-1113.59668	2807.72925	1664.59131	-1140.80627	2356.11987	1663.19617	-1171.42786	1905.89343	1660.98218	-1198.82166	1404.15417	1661.36902	-1227.46228	952.69745	1663.55029	-1244.68213	506.74710	1667.53259	
43	0.210	-575.95721	2755.42261	1664.47534	-604.85175	2306.25952	1662.41235	-637.26691	1851.86133	1662.07971	-660.70245	1349.41589	1662.44849	-690.04901	902.70428	1662.65906	-713.74127	454.68057	1664.10217	-1113.54822	2807.73706	1664.59058	-1140.78784	2356.12720	1663.18396	-1171.42786	1905.90161	1660.97339	-1198.81030	1404.13049	1661.37830	-1227.47961	952.68915	1663.54626	-1244.69507	506.77844	1667.51892	
44	0.215	-575.96942	2755.43701	1664.47400	-604.81952	2306.26660	1662.40955	-637.28204	1851.88281	1662.06738	-660.69061	1349.39893	1662.44543	-690.05658	902.66962	1662.65503	-713.75073	454.69260	1664.10547	-1113.59802	2807.68750	1664.59631	-1140.79736	2356.11792	1663.19885	-1171.41467	1905.90601	1660.98621	-1198.81567	1404.14807	1661.36145	-1227.46240	952.67816	1663.54529	-1244.66711	506.75662	1667.51855	
45	0.220	-575.96484	2755.42896	1664.46594	-604.81281	2306.24731	1662.41223	-637.29089	1851.89001	1662.06677	-660.70203	1349.40552	1662.45129	-690.06122	902.69196	1662.64343	-713.72406	454.68954	1664.10083	-1113.59058	2807.72705	1664.60876	-1140.81006	2356.10864	1663.19861	-1171.41846	1905.90454	1660.97278	-1198.82922	1404.16406	1661.36218	-1227.45728	952.68323	1663.57056	-1244.69678	506.75629	1667.54028	
46	0.225	-575.96222	2755.43433	1664.46484	-604.83356	2306.23804	1662.41077	-637.28314	1851.85693	1662.04724	-660.69604	1349.41528	1662.47400	-690.06641	902.69525	1662.67249	-713.73376	454.71280	1664.11499	-1113.56384	2807.72412	1664.61060	-1140.79907	2356.10034	1663.21106	-1171.43384	1905.90918	1660.97021	-1198.81958	1404.17126	1661.36096	-1227.45410	952.67432	1663.57874	-1244.69092	506.77151	1667.52942	
47	0.230	-575.95770	2755.40649	1664.47400	-604.83112	2306.25073	1662.41846	-637.30884	1851.87622	1662.06726	-660.70642	1349.41443	1662.45532	-690.05988	902.67603	1662.66553	-713.73877	454.69083	1664.10156	-1113.55054	2807.72095	1664.61047	-1140.81238	2356.12085	1663.19067	-1171.41479	1905.88367	1660.98425	-1198.81360	1404.16382	1661.36450	-1227.45715	952.68079	1663.55408	-1244.69568	506.79324	1667.52795	
48	0.235	-575.96832	2755.41553	1664.46350	-604.85620	2306.24707	1662.42017	-637.27850	1851.88245	1662.05762	-660.72491	1349.41150	1662.45996	-690.08228	902.67194	1662.67090	-713.75061	454.69055	1664.10889	-1113.58289	2807.71997	1664.59680	-1140.80957	2356.10303	1663.19617	-1171.42688	1905.90942	1660.97168	-1198.83691	1404.15161	1661.38464	-1227.45129	952.69049	1663.54871	-1244.69043	506.77274	1667.54822	
49	0.240	-575.97632	2755.41772	1664.47937	-604.82489	2306.25171	1662.42603	-637.30835	1851.85083	1662.04834	-660.72430	1349.38550	1662.46069	-690.04761	902.69617	1662.67114	-713.73431	454.69312	1664.10840	-1113.57263	2807.72095	1664.61206	-1140.81689	2356.10352	1663.20227	-1171.42651	1905.88318	1660.97961	-1198.80176	1404.19104	1661.36694	-1227.46338	952.70764	1663.56677	-1244.69885	506.79111	1667.52356	
50	0.245	-575.96765	2755.41504	1664.48120	-604.81635	2306.21826	1662.40234	-637.28223	1851.87354	1662.07373	-660.70746	1349.40369	1662.46619	-690.05853	902.68433	1662.66052	-713.73712	454.66858	1664.10925	-1113.53455	2807.71167	1664.60547	-1140.80444	2356.12695	1663.19849	-1171.42139	1905.91614	1660.96887	-1198.80322	1404.17224	1661.37695	-1227.45520	952.70563	1663.56714	-1244.68286	506.77161	1667.52698	
